<svg xmlns="http://www.w3.org/2000/svg" width="17.287" height="20.486" viewBox="0 0 17.287 20.486">
  <g id="Group_180" data-name="Group 180" transform="translate(-539.388 -31.649)">
    <path id="Path_107" data-name="Path 107" d="M104.817,154.7a.443.443,0,0,1,.419.464v8.765a.421.421,0,1,1-.839,0v-8.765A.443.443,0,0,1,104.817,154.7Zm0,0" transform="translate(440.215 -115.278)" fill="#3f4552"/>
    <path id="Path_670" data-name="Path 670" d="M104.817,154.7a.443.443,0,0,1,.419.464v8.765a.421.421,0,1,1-.839,0v-8.765A.443.443,0,0,1,104.817,154.7Zm0,0" transform="translate(443.215 -115.278)" fill="#3f4552"/>
    <path id="Path_671" data-name="Path 671" d="M104.817,154.7a.443.443,0,0,1,.419.464v8.765a.421.421,0,1,1-.839,0v-8.765A.443.443,0,0,1,104.817,154.7Zm0,0" transform="translate(446.215 -115.278)" fill="#3f4552"/>
    <path id="Path_108" data-name="Path 108" d="M1.412,6.1v11.82a2.593,2.593,0,0,0,.731,1.826,2.5,2.5,0,0,0,1.781.741h9.431a2.5,2.5,0,0,0,1.781-.741,2.593,2.593,0,0,0,.731-1.826V6.1a1.836,1.836,0,0,0,1.4-2.008,1.881,1.881,0,0,0-1.888-1.6H12.827v-.6A1.85,1.85,0,0,0,12.252.549a2,2,0,0,0-1.4-.55H6.427a2,2,0,0,0-1.4.55,1.85,1.85,0,0,0-.575,1.345v.6H1.9a1.881,1.881,0,0,0-1.888,1.6A1.836,1.836,0,0,0,1.412,6.1ZM13.356,19.525H3.925a1.544,1.544,0,0,1-1.515-1.607V6.14H14.871V17.918a1.544,1.544,0,0,1-1.515,1.607ZM5.45,1.894a.906.906,0,0,1,.283-.667A.98.98,0,0,1,6.427.958h4.426a.98.98,0,0,1,.694.269.906.906,0,0,1,.283.667v.6H5.45ZM1.9,3.453H15.379a.864.864,0,1,1,0,1.727H1.9a.864.864,0,1,1,0-1.727Zm0,0" transform="translate(539.392 31.651)" fill="#3f4552"/>
  </g>
</svg>
