<?xml version="1.0" encoding="utf-8"?>
<!-- Generator: Adobe Illustrator 16.0.4, SVG Export Plug-In . SVG Version: 6.00 Build 0)  -->
<!DOCTYPE svg PUBLIC "-//W3C//DTD SVG 1.1//EN" "http://www.w3.org/Graphics/SVG/1.1/DTD/svg11.dtd">
<svg version="1.1" id="Layer_1" xmlns="http://www.w3.org/2000/svg" xmlns:xlink="http://www.w3.org/1999/xlink" x="0px" y="0px"
	 width="16px" height="16px" viewBox="0 0 16 16" enable-background="new 0 0 16 16" xml:space="preserve">
<path fill="#F2695C" d="M8,0.078C3.625,0.078,0.078,3.625,0.078,8c0,4.375,3.547,7.921,7.922,7.921c4.375,0,7.922-3.547,7.922-7.921
	C15.922,3.625,12.375,0.078,8,0.078z M8.693,2.443l-0.105,7.905H7.322L7.223,2.443H8.693z M8.617,13.332
	c-0.141,0.15-0.348,0.227-0.621,0.227s-0.478-0.076-0.617-0.227s-0.208-0.34-0.208-0.568c0-0.23,0.069-0.424,0.208-0.578
	c0.139-0.156,0.344-0.232,0.617-0.232s0.48,0.076,0.621,0.232c0.143,0.154,0.213,0.348,0.213,0.578
	C8.83,12.992,8.759,13.182,8.617,13.332z"/>
</svg>
